<svg xmlns="http://www.w3.org/2000/svg" width="300" height="300" viewBox="0 0 300 300">
  <defs>
    <filter id="paperShadow" x="-10%" y="-10%" width="120%" height="120%">
      <feDropShadow dx="3" dy="4" stdDeviation="3" flood-color="#78350f" flood-opacity="0.3"/>
    </filter>
  </defs>
  <g filter="url(#paperShadow)">
    <rect x="25" y="25" width="250" height="250" rx="20" fill="#fef3c7" stroke="#b45309" stroke-width="3.5" stroke-dasharray="8 5" />
    <path d="M150 240 Q140 150 120 70" stroke="#4d7c0f" stroke-width="5" fill="none" stroke-linecap="round" />
    <path d="M138 180 Q95 160 85 135 Q120 145 135 175" fill="#65a30d" opacity="0.9" />
    <path d="M130 130 Q175 110 185 85 Q150 105 128 128" fill="#65a30d" opacity="0.9" />
    <g transform="translate(120, 70)">
      <circle cx="0" cy="-22" r="16" fill="#f59e0b" opacity="0.9" />
      <circle cx="20" cy="-11" r="16" fill="#d97706" opacity="0.9" />
      <circle cx="20" cy="11" r="16" fill="#f59e0b" opacity="0.9" />
      <circle cx="0" cy="22" r="16" fill="#b45309" opacity="0.9" />
      <circle cx="-20" cy="11" r="16" fill="#f59e0b" opacity="0.9" />
      <circle cx="-20" cy="-11" r="16" fill="#d97706" opacity="0.9" />
      <circle cx="0" cy="0" r="12" fill="#78350f" stroke="#fef3c7" stroke-width="2" />
    </g>
    <text x="150" y="255" font-family="Georgia, serif" font-size="12" font-weight="bold" fill="#92400e" text-anchor="middle" letter-spacing="3">BOTANICAL CRAFT</text>
  </g>
</svg>