<svg xmlns="http://www.w3.org/2000/svg" width="300" height="300" viewBox="0 0 300 300">
  <defs>
    <linearGradient id="holoGrad" x1="0%" y1="0%" x2="100%" y2="100%">
      <stop offset="0%" stop-color="#ff9a9e" />
      <stop offset="25%" stop-color="#fecfef" />
      <stop offset="50%" stop-color="#a1c4fd" />
      <stop offset="75%" stop-color="#c2e9fb" />
      <stop offset="100%" stop-color="#e0c3fc" />
    </linearGradient>
    <filter id="glow3d" x="-20%" y="-20%" width="140%" height="140%">
      <feDropShadow dx="3" dy="5" stdDeviation="4" flood-color="#8b5cf6" flood-opacity="0.45"/>
    </filter>
  </defs>
  <g filter="url(#glow3d)">
    <path d="M150 20 Q150 150 20 150 Q150 150 150 280 Q150 150 280 150 Q150 150 150 20 Z" fill="url(#holoGrad)" stroke="#ffffff" stroke-width="5" />
    <path d="M150 65 Q150 150 65 150 Q150 150 150 235 Q150 150 235 150 Q150 150 150 65 Z" fill="#ffffff" opacity="0.85" />
    <path d="M235 45 Q235 70 210 70 Q235 70 235 95 Q235 70 260 70 Q235 70 235 45 Z" fill="url(#holoGrad)" stroke="#ffffff" stroke-width="2.5" />
    <path d="M65 215 Q65 235 45 235 Q65 235 65 255 Q65 235 85 235 Q65 235 65 215 Z" fill="url(#holoGrad)" stroke="#ffffff" stroke-width="2.5" />
    <circle cx="230" cy="220" r="10" fill="#ffffff" stroke="#e0c3fc" stroke-width="2" />
    <circle cx="70" cy="80" r="8" fill="#ffffff" stroke="#e0c3fc" stroke-width="2" />
  </g>
</svg>